HIERARCHY
ROOT SpineBase
{
  OFFSET 0.000000 0.000000 0.000000
  CHANNELS 6 Xposition Yposition Zposition Zrotation Xrotation Yrotation
  JOINT SpineMid
  {
    OFFSET -0.000000 23.525171 0.000000
    CHANNELS 3 Zrotation Xrotation Yrotation
    JOINT SpineShoulder
    {
      OFFSET 0.117091 17.681797 -0.370698
      CHANNELS 3 Zrotation Xrotation Yrotation
      JOINT Neck
      {
        OFFSET -0.033740 5.836903 -0.325710
        CHANNELS 3 Zrotation Xrotation Yrotation
        JOINT Head
        {
          OFFSET 1.021565 10.079597 -0.407799
          CHANNELS 3 Zrotation Xrotation Yrotation
          End Site
          {
            OFFSET 0 0 0
          }
        }
      }
      JOINT ShoulderLeft
      {
        OFFSET -4.451697 -1.783654 -5.970860
        CHANNELS 3 Zrotation Xrotation Yrotation
        JOINT ElbowLeft
        {
          OFFSET -3.056122 -16.677993 -1.350364
          CHANNELS 3 Zrotation Xrotation Yrotation
          JOINT WristLeft
          {
            OFFSET -7.379713 -18.790522 -4.594561
            CHANNELS 3 Zrotation Xrotation Yrotation
            JOINT HandLeft
            {
              OFFSET -1.174629 -12.350463 0.403445
              CHANNELS 3 Zrotation Xrotation Yrotation
              JOINT HandTipLeft
              {
                OFFSET -2.489609 -2.825950 -1.831344
                CHANNELS 3 Zrotation Xrotation Yrotation
                End Site
                {
                  OFFSET 0 0 0
                }
              }
              JOINT ThumbLeft
              {
                OFFSET -1.851334 0.513343 -1.013846
                CHANNELS 3 Zrotation Xrotation Yrotation
                End Site
                {
                  OFFSET 0 0 0
                }
              }
            }
          }
        }
      }
      JOINT ShoulderRight
      {
        OFFSET 6.796356 -3.143625 -3.164864
        CHANNELS 3 Zrotation Xrotation Yrotation
        JOINT ElbowRight
        {
          OFFSET -10.487439 -15.679650 -8.965056
          CHANNELS 3 Zrotation Xrotation Yrotation
          JOINT WristRight
          {
            OFFSET 0.746984 20.132105 4.201585
            CHANNELS 3 Zrotation Xrotation Yrotation
            JOINT HandRight
            {
              OFFSET 3.699976 9.075345 -0.736018
              CHANNELS 3 Zrotation Xrotation Yrotation
              JOINT HandTipRight
              {
                OFFSET -1.686165 3.480129 0.786521
                CHANNELS 3 Zrotation Xrotation Yrotation
                End Site
                {
                  OFFSET 0 0 0
                }
              }
              JOINT ThumbRight
              {
                OFFSET -2.056462 0.422757 -2.369698
                CHANNELS 3 Zrotation Xrotation Yrotation
                End Site
                {
                  OFFSET 0 0 0
                }
              }
            }
          }
        }
      }
    }
  }
  JOINT HipLeft
  {
    OFFSET -4.970901 1.285805 -3.306421
    CHANNELS 3 Zrotation Xrotation Yrotation
    JOINT KneeLeft
    {
      OFFSET -5.935309 -22.177292 -4.674976
      CHANNELS 3 Zrotation Xrotation Yrotation
      JOINT AnkleLeft
      {
        OFFSET -4.226200 -22.189580 4.595148
        CHANNELS 3 Zrotation Xrotation Yrotation
        JOINT FootLeft
        {
          OFFSET 0.681349 -2.877520 -9.288541
          CHANNELS 3 Zrotation Xrotation Yrotation
          End Site
          {
            OFFSET 0 0 0
          }
        }
      }
    }
  }
  JOINT HipRight
  {
    OFFSET 2.554779 -0.119008 -1.638166
    CHANNELS 3 Zrotation Xrotation Yrotation
    JOINT KneeRight
    {
      OFFSET -11.049593 -26.465067 -4.592086
      CHANNELS 3 Zrotation Xrotation Yrotation
      JOINT AnkleRight
      {
        OFFSET -7.491304 -23.515091 5.258500
        CHANNELS 3 Zrotation Xrotation Yrotation
        JOINT FootRight
        {
          OFFSET 0.317374 -4.503017 -3.746172
          CHANNELS 3 Zrotation Xrotation Yrotation
          End Site
          {
            OFFSET 0 0 0
          }
        }
      }
    }
  }
}
MOTION
Frames: 14
Frame Time: 0.033333
172.739377 75.154059 350.454880 -0.579804 -1.817781 -25.954098 1.291560 -0.024450 25.951846 0.727817 -0.512298 0.018230 -11.858190 15.762563 -0.025528 0.000000 0.000000 0.000000 0.124248 -0.589046 0.478255 4.115897 0.235720 -0.758433 -8.652446 -3.822142 0.793325 24.850836 -7.303387 -3.384302 0.000000 0.000000 0.000000 0.000000 0.000000 0.000000 -3.019494 -5.756410 6.956867 -4.843691 0.297278 -4.911211 23.466794 14.269032 -7.102924 -55.152634 -9.730719 3.073735 0.000000 0.000000 0.000000 0.000000 0.000000 0.000000 1.330908 -2.977615 27.480828 0.012347 7.972094 -2.196846 2.611108 -4.677002 -5.213774 0.000000 0.000000 0.000000 -26.928891 -4.124722 27.267351 41.358473 1.347350 1.274730 -9.736703 21.587268 -3.705230 0.000000 0.000000 0.000000
170.490089 63.724457 350.808900 -0.466681 -2.382720 -26.410764 1.411477 0.069069 26.407867 0.687879 -0.483690 0.016557 -18.809171 16.136410 0.958324 0.000000 0.000000 0.000000 -0.300169 -4.709012 1.400545 7.967741 0.584572 -1.368766 -18.041602 5.971986 0.811276 35.052693 -16.132340 2.472228 0.000000 0.000000 0.000000 0.000000 0.000000 0.000000 0.298638 -7.367431 6.670056 -8.549296 1.551883 -3.845299 22.211427 16.220745 -7.848692 -53.580979 -14.438912 -0.998128 0.000000 0.000000 0.000000 0.000000 0.000000 0.000000 -8.043340 9.052757 25.450546 1.772103 -6.413331 0.773554 2.896466 -3.915381 -2.025301 0.000000 0.000000 0.000000 -25.071600 -3.092008 27.812456 39.761001 1.538073 1.534721 -11.234235 45.932604 -1.992756 0.000000 0.000000 0.000000
168.374299 55.575801 350.724729 -1.017960 -2.481607 -23.133474 1.530670 0.051846 23.103598 0.499028 -0.330033 -0.007968 -22.400007 14.921061 1.399016 0.000000 0.000000 0.000000 0.250805 -4.023183 1.272427 12.858764 -6.617769 0.768982 -25.025728 17.485386 1.973977 39.578709 -22.668532 9.360816 0.000000 0.000000 0.000000 0.000000 0.000000 0.000000 4.638925 -6.740294 4.087128 -6.295076 0.499952 -2.794548 14.264563 21.098019 -8.191937 -49.528167 -21.685841 -5.322456 0.000000 0.000000 0.000000 0.000000 0.000000 0.000000 -35.922309 57.827279 27.128993 17.748791 -57.533856 23.740645 3.797002 -4.353182 -1.965828 0.000000 0.000000 0.000000 -23.473036 -1.810947 25.041546 39.510079 2.278757 1.078775 -3.331771 67.436109 -9.076482 0.000000 0.000000 0.000000
166.473625 50.801358 350.390916 -2.134519 -2.425145 -16.008766 1.567966 -0.063129 15.929588 0.308468 -0.267544 -0.051468 -23.898227 12.381213 1.419796 0.000000 0.000000 0.000000 -0.265355 0.115457 0.656772 21.945990 -18.329876 6.127566 -33.418105 27.999432 4.801172 41.580268 -26.602233 14.953200 0.000000 0.000000 0.000000 0.000000 0.000000 0.000000 6.708927 -3.545541 0.969435 -5.634372 0.312547 -0.496737 10.758638 23.688320 -9.720683 -49.614380 -33.417491 -13.598458 0.000000 0.000000 0.000000 0.000000 0.000000 0.000000 150.388847 63.431009 -165.095977 145.503647 -66.616474 170.600537 4.054643 -4.298569 -1.189480 0.000000 0.000000 0.000000 -21.948323 1.278435 18.528088 39.853352 2.376124 1.236161 94.438531 76.005130 -104.756316 0.000000 0.000000 0.000000
164.954140 49.371041 349.831247 -3.463490 -2.142965 -5.674469 1.694058 -0.304429 5.548489 0.391402 -0.261635 -0.087009 -26.662288 8.492545 1.148599 0.000000 0.000000 0.000000 -2.576809 10.217359 -0.504698 39.509665 -33.297784 19.661605 -46.478470 40.067994 11.247747 43.343453 -31.618205 22.005852 0.000000 0.000000 0.000000 0.000000 0.000000 0.000000 7.926128 1.505145 -3.136734 -1.492328 -1.453996 2.087702 5.242351 22.372988 -8.878174 -43.464558 -39.423005 -15.764364 0.000000 0.000000 0.000000 0.000000 0.000000 0.000000 126.107888 42.766154 -124.874306 167.886256 -66.676564 -148.775063 4.162593 -1.479634 -0.627611 0.000000 0.000000 0.000000 -19.035894 3.319407 8.997108 40.139923 3.743295 0.046723 120.788575 58.675526 -129.449555 0.000000 0.000000 0.000000
164.351778 51.175611 349.223872 -4.009512 -1.954225 1.302626 1.349823 -0.291359 -1.440722 0.417362 -0.033405 -0.105367 -41.293373 -19.064135 -6.091124 0.000000 0.000000 0.000000 -1.921975 22.099813 -2.310502 63.292674 -42.212053 43.154088 -56.351450 47.827948 16.867239 38.275836 -35.127173 26.921299 0.000000 0.000000 0.000000 0.000000 0.000000 0.000000 7.410726 8.361431 -7.419281 0.923224 -4.089186 6.044504 9.104844 26.786451 -13.809340 -53.977753 -47.582615 -22.691191 0.000000 0.000000 0.000000 0.000000 0.000000 0.000000 107.612347 36.963566 -95.856307 -146.397452 -76.774813 -96.777049 3.583987 -1.683089 0.088717 0.000000 0.000000 0.000000 -16.808483 3.964425 2.339564 39.338201 4.460435 -0.786476 110.470387 47.795352 -117.148764 0.000000 0.000000 0.000000
164.735227 56.513635 348.666257 -4.635234 -1.469987 6.558782 0.900152 0.002109 -6.694862 0.527973 0.190585 -0.117624 -144.837168 -58.517108 -111.060392 0.000000 0.000000 0.000000 -0.011765 32.356272 -4.361487 85.631441 -41.069962 66.218098 -65.275689 53.983827 22.003305 30.698660 -39.716953 32.135723 0.000000 0.000000 0.000000 0.000000 0.000000 0.000000 8.751667 14.756008 -12.417193 5.866836 -4.833207 10.496418 7.634892 28.912061 -17.105581 -50.344337 -49.756703 -16.338613 0.000000 0.000000 0.000000 0.000000 0.000000 0.000000 54.387232 25.202636 -38.635662 -40.377819 -41.455338 1.398293 3.016581 -4.253953 0.841922 0.000000 0.000000 0.000000 -15.984539 3.610445 -2.572497 39.818515 5.228931 -1.779213 77.040391 46.071579 -84.119095 0.000000 0.000000 0.000000
166.308536 65.562689 348.440930 -4.823223 -1.124250 11.414730 0.690906 0.195485 -11.538140 0.676739 0.276796 -0.112579 167.824777 -36.040571 168.339547 0.000000 0.000000 0.000000 3.853296 38.925295 -7.081521 95.824589 -36.746686 79.235722 -66.786693 50.549463 22.339365 16.659005 -37.551123 32.310330 0.000000 0.000000 0.000000 0.000000 0.000000 0.000000 9.381036 20.377465 -16.475685 12.467822 -4.451619 14.465239 -1.849881 29.023193 -17.938180 -45.959194 -49.021922 -10.095268 0.000000 0.000000 0.000000 0.000000 0.000000 0.000000 23.472082 3.484800 -17.824524 -19.836259 -7.592491 3.219652 2.237502 -8.430366 1.994550 0.000000 0.000000 0.000000 -16.022702 4.065303 -7.131865 39.783426 5.639567 -2.444922 28.464666 32.663981 -38.352158 0.000000 0.000000 0.000000
168.597295 77.878519 348.346960 -5.110048 -0.801653 6.859168 0.931865 0.148789 -6.975447 0.712935 0.220194 -0.108835 163.530171 -25.530746 148.504603 0.000000 0.000000 0.000000 10.636601 42.464958 -11.029916 98.179665 -31.269682 83.567081 -64.072664 43.714219 19.741071 18.451048 -34.625103 34.954103 0.000000 0.000000 0.000000 0.000000 0.000000 0.000000 11.755374 23.205751 -20.200718 19.741915 0.210786 16.690535 -16.757100 24.089153 -16.476369 -35.759408 -39.162513 4.211183 0.000000 0.000000 0.000000 0.000000 0.000000 0.000000 15.668771 -4.244815 -8.043214 -13.147141 4.445177 1.180071 0.476979 -16.007041 4.382018 0.000000 0.000000 0.000000 -16.948039 2.765029 -2.707798 41.856662 5.271430 -2.077868 -7.732862 8.237511 -10.470218 0.000000 0.000000 0.000000
169.976856 83.375094 347.921462 -5.316275 -0.571002 5.526201 1.000989 0.128956 -5.636843 0.721417 0.195069 -0.109976 156.973037 -18.438847 112.836571 0.000000 0.000000 0.000000 19.388043 43.788600 -15.683345 96.938562 -28.802263 87.711544 -63.170224 39.530338 19.481701 6.026000 -23.955852 25.097195 0.000000 0.000000 0.000000 0.000000 0.000000 0.000000 13.758772 24.846541 -22.832774 23.202592 3.170900 18.095577 -15.852469 24.614915 -18.678039 -38.406586 -39.352880 5.403784 0.000000 0.000000 0.000000 0.000000 0.000000 0.000000 13.280413 -6.614209 -5.323822 -10.344895 6.909075 0.287542 -0.997880 -20.993216 10.546524 0.000000 0.000000 0.000000 -14.039150 1.675563 -1.989692 38.459578 5.288620 -1.856771 -15.562225 5.205592 -4.393936 0.000000 0.000000 0.000000
169.972080 83.384304 347.663126 -5.130831 -0.335664 2.991951 1.049809 0.100370 -3.088529 0.691688 0.183550 -0.100737 154.282155 -16.239352 99.140037 0.000000 0.000000 0.000000 27.770474 41.450640 -19.115541 90.879038 -30.486440 88.051104 -65.328671 35.250546 21.424462 10.898330 -21.188877 24.138771 0.000000 0.000000 0.000000 0.000000 0.000000 0.000000 16.368079 23.874155 -24.713031 22.938964 4.908324 18.362293 -22.290067 20.855829 -16.777744 -32.379805 -30.098485 13.195718 0.000000 0.000000 0.000000 0.000000 0.000000 0.000000 12.807683 -7.097984 -2.405776 -9.755324 7.282230 0.099594 -1.291056 -29.634247 17.342518 0.000000 0.000000 0.000000 -6.830191 0.468809 -0.866010 28.144940 4.576754 -0.725004 -16.823612 10.939632 -0.571287 0.000000 0.000000 0.000000
169.745314 80.839321 347.867881 -4.089707 0.166094 1.293386 1.157820 0.028068 -1.347081 0.551433 0.160762 -0.063396 159.960953 -22.234984 136.147289 0.000000 0.000000 0.000000 30.742130 33.246793 -17.358889 78.704843 -36.471814 79.649967 -64.500272 39.726396 20.495135 12.287532 -25.785897 25.837714 0.000000 0.000000 0.000000 0.000000 0.000000 0.000000 20.071462 15.706920 -23.519634 19.356029 6.264983 14.737319 -25.347744 14.074645 -10.205289 -30.034768 -22.136290 11.757565 0.000000 0.000000 0.000000 0.000000 0.000000 0.000000 12.433204 -5.646869 -1.240340 -10.934858 4.898117 0.527972 -0.657385 -28.909445 19.074732 0.000000 0.000000 0.000000 -4.779634 -0.619229 0.374571 23.109664 4.392201 -0.543926 -15.600933 24.674675 1.371664 0.000000 0.000000 0.000000
169.563491 80.566260 347.797004 -4.190068 -0.020461 0.188771 1.220343 -0.046054 -0.252630 0.524559 0.077287 -0.073194 158.893775 -23.206159 133.110052 0.000000 0.000000 0.000000 38.111834 32.654729 -20.300492 73.707915 -37.994203 81.438371 -64.506102 40.385743 20.570701 12.190061 -25.698744 25.724646 0.000000 0.000000 0.000000 0.000000 0.000000 0.000000 21.499894 17.818295 -26.037634 19.219485 5.211660 17.217643 -23.562553 10.769110 -8.028012 -31.718792 -20.651848 9.571288 0.000000 0.000000 0.000000 0.000000 0.000000 0.000000 13.144955 -5.373345 -0.232897 -11.801948 4.922527 0.612769 -0.566110 -26.116958 19.271712 0.000000 0.000000 0.000000 -3.232707 -0.742029 1.335132 21.036518 4.375852 -0.452246 -17.108641 25.570388 3.326863 0.000000 0.000000 0.000000
169.189229 79.950246 347.700614 -4.477776 -0.429065 -0.642607 1.285240 -0.156725 0.553117 0.498483 -0.048603 -0.094967 155.797900 -24.533427 123.271181 0.000000 0.000000 0.000000 47.405158 32.786330 -24.722908 69.126225 -39.758519 85.569237 -64.441164 41.549429 20.661531 12.057394 -25.566884 25.549171 0.000000 0.000000 0.000000 0.000000 0.000000 0.000000 23.142396 22.834065 -30.485358 19.236231 2.466124 22.141621 -19.856719 8.619820 -6.491902 -34.208283 -23.012324 5.593405 0.000000 0.000000 0.000000 0.000000 0.000000 0.000000 14.360814 -5.033871 0.421838 -13.152219 5.278526 0.724983 -0.368574 -20.048560 17.171208 0.000000 0.000000 0.000000 -2.488665 -0.315514 2.092067 20.218698 4.284345 -0.373543 -18.419724 24.621370 4.724669 0.000000 0.000000 0.000000
